<svg version="1.1" xmlns="http://www.w3.org/2000/svg" xmlns:xlink="http://www.w3.org/1999/xlink" width="1268" height="1028"><defs/><g><g transform="translate(10,-742) scale(1,1)"><rect fill="#C0C0C0" stroke="none" x="455" y="1407" width="336" height="104" opacity="0.2"/></g><g transform="translate(10,-742) scale(1,1)"><rect fill="#ffffff" stroke="none" x="448" y="1400" width="336" height="104"/></g><g transform="translate(10,-742) scale(1,1)"><path fill="none" stroke="#000000" d="M 448 1400 L 784 1400 L 784 1504 L 448 1504 L 448 1400 Z Z" stroke-miterlimit="10"/></g><g transform="translate(10,-742) scale(1,1)"><path fill="none" stroke="#000000" d="M 448 1425 L 784 1425" stroke-miterlimit="10"/></g><g transform="translate(10,-742) scale(1,1)"><path fill="none" stroke="#000000" d="M 448 1435 L 784 1435" stroke-miterlimit="10"/></g><g transform="translate(10,-742) scale(1,1)"><g><path fill="none" stroke="none"/><text fill="#000000" stroke="none" font-family="Arial" font-size="13px" font-style="italic" font-weight="bold" text-decoration="none" x="587.5" y="1419.5">Visualiser</text></g></g><g transform="translate(10,-742) scale(1,1)"><g><path fill="none" stroke="none"/><text fill="#000000" stroke="none" font-family="Arial" font-size="13px" font-style="normal" font-weight="normal" text-decoration="none" x="453" y="1452.5">«void»+getVisualisation(node: Pane, taskMap, eventList)</text></g></g><g transform="translate(10,-742) scale(1,1)"><rect fill="#C0C0C0" stroke="none" x="183" y="1615" width="336" height="151" opacity="0.2"/></g><g transform="translate(10,-742) scale(1,1)"><rect fill="#ffffff" stroke="none" x="176" y="1608" width="336" height="151"/></g><g transform="translate(10,-742) scale(1,1)"><path fill="none" stroke="#000000" d="M 176 1608 L 512 1608 L 512 1759 L 176 1759 L 176 1608 Z Z" stroke-miterlimit="10"/></g><g transform="translate(10,-742) scale(1,1)"><path fill="none" stroke="#000000" d="M 176 1633 L 512 1633" stroke-miterlimit="10"/></g><g transform="translate(10,-742) scale(1,1)"><path fill="none" stroke="#000000" d="M 176 1643 L 512 1643" stroke-miterlimit="10"/></g><g transform="translate(10,-742) scale(1,1)"><g><path fill="none" stroke="none"/><text fill="#000000" stroke="none" font-family="Arial" font-size="13px" font-style="normal" font-weight="bold" text-decoration="none" x="297" y="1627.5">UsageVisualiser</text></g></g><g transform="translate(10,-742) scale(1,1)"><g><path fill="none" stroke="none"/><text fill="#000000" stroke="none" font-family="Arial" font-size="13px" font-style="normal" font-weight="normal" text-decoration="none" x="181" y="1660.5">«void»+getVisualisation(node: Pane, taskMap, eventList)</text></g></g><g transform="translate(10,-742) scale(1,1)"><path fill="none" stroke="#000000" d="M 433 1607 L 554 1505" stroke-miterlimit="10"/></g><g transform="translate(10,-742) scale(1,1)"><path fill="#FFFFFF" stroke="none" d="M 543.8858528953064 1524.5372472048807 L 554 1505 L 533.0332980120638 1511.663137980642"/></g><g transform="translate(10,-742) scale(1,1)"><path fill="none" stroke="#000000" d="M 543.8858528953064 1524.5372472048807 L 554 1505 L 533.0332980120638 1511.663137980642 L 543.8858528953064 1524.5372472048807" stroke-miterlimit="10"/></g><g transform="translate(10,-742) scale(1,1)"><rect fill="#C0C0C0" stroke="none" x="575" y="1615" width="336" height="151" opacity="0.2"/></g><g transform="translate(10,-742) scale(1,1)"><rect fill="#ffffff" stroke="none" x="568" y="1608" width="336" height="151"/></g><g transform="translate(10,-742) scale(1,1)"><path fill="none" stroke="#000000" d="M 568 1608 L 904 1608 L 904 1759 L 568 1759 L 568 1608 Z Z" stroke-miterlimit="10"/></g><g transform="translate(10,-742) scale(1,1)"><path fill="none" stroke="#000000" d="M 568 1633 L 904 1633" stroke-miterlimit="10"/></g><g transform="translate(10,-742) scale(1,1)"><path fill="none" stroke="#000000" d="M 568 1643 L 904 1643" stroke-miterlimit="10"/></g><g transform="translate(10,-742) scale(1,1)"><g><path fill="none" stroke="none"/><text fill="#000000" stroke="none" font-family="Arial" font-size="13px" font-style="normal" font-weight="bold" text-decoration="none" x="680" y="1627.5">TaskFlowVisualiser</text></g></g><g transform="translate(10,-742) scale(1,1)"><g><path fill="none" stroke="none"/><text fill="#000000" stroke="none" font-family="Arial" font-size="13px" font-style="normal" font-weight="normal" text-decoration="none" x="573" y="1660.5">«void»+getVisualisation(node: Pane, taskMap, eventList)</text></g></g><g transform="translate(10,-742) scale(1,1)"><path fill="none" stroke="#000000" d="M 697 1607 L 644 1505" stroke-miterlimit="10"/></g><g transform="translate(10,-742) scale(1,1)"><path fill="#FFFFFF" stroke="none" d="M 660.8422963918853 1519.1540472038173 L 644 1505 L 645.9008792304021 1526.9177247485095"/></g><g transform="translate(10,-742) scale(1,1)"><path fill="none" stroke="#000000" d="M 660.8422963918853 1519.1540472038173 L 644 1505 L 645.9008792304021 1526.9177247485095 L 660.8422963918853 1519.1540472038173" stroke-miterlimit="10"/></g><g transform="translate(10,-742) scale(1,1)"><rect fill="#C0C0C0" stroke="none" x="135" y="1407" width="283" height="127" opacity="0.2"/></g><g transform="translate(10,-742) scale(1,1)"><rect fill="#ffffff" stroke="none" x="128" y="1400" width="283" height="127"/></g><g transform="translate(10,-742) scale(1,1)"><path fill="none" stroke="#000000" d="M 128 1400 L 411 1400 L 411 1527 L 128 1527 L 128 1400 Z Z" stroke-miterlimit="10"/></g><g transform="translate(10,-742) scale(1,1)"><path fill="none" stroke="#000000" d="M 128 1425 L 411 1425" stroke-miterlimit="10"/></g><g transform="translate(10,-742) scale(1,1)"><path fill="none" stroke="#000000" d="M 128 1435 L 411 1435" stroke-miterlimit="10"/></g><g transform="translate(10,-742) scale(1,1)"><g><path fill="none" stroke="none"/><text fill="#000000" stroke="none" font-family="Arial" font-size="13px" font-style="normal" font-weight="bold" text-decoration="none" x="250.5" y="1419.5">Parser</text></g></g><g transform="translate(10,-742) scale(1,1)"><g><path fill="none" stroke="none"/><text fill="#000000" stroke="none" font-family="Arial" font-size="13px" font-style="normal" font-weight="normal" text-decoration="none" x="133" y="1452.5">«HashMap&lt;String,Task&gt;»+parseBookkeeping()</text></g></g><g transform="translate(10,-742) scale(1,1)"><g><path fill="none" stroke="none"/><text fill="#000000" stroke="none" font-family="Arial" font-size="13px" font-style="normal" font-weight="normal" text-decoration="none" x="133" y="1467.5">«List&lt;Event&gt;»+parseStatistic()</text></g></g><g transform="translate(10,-742) scale(1,1)"><rect fill="#C0C0C0" stroke="none" x="607" y="967" width="383" height="308" opacity="0.2"/></g><g transform="translate(10,-742) scale(1,1)"><rect fill="#ffffff" stroke="none" x="600" y="960" width="383" height="308"/></g><g transform="translate(10,-742) scale(1,1)"><path fill="none" stroke="#000000" d="M 600 960 L 983 960 L 983 1268 L 600 1268 L 600 960 Z Z" stroke-miterlimit="10"/></g><g transform="translate(10,-742) scale(1,1)"><path fill="none" stroke="#000000" d="M 600 985 L 983 985" stroke-miterlimit="10"/></g><g transform="translate(10,-742) scale(1,1)"><path fill="none" stroke="#000000" d="M 600 1173 L 983 1173" stroke-miterlimit="10"/></g><g transform="translate(10,-742) scale(1,1)"><g><path fill="none" stroke="none"/><text fill="#000000" stroke="none" font-family="Arial" font-size="13px" font-style="normal" font-weight="bold" text-decoration="none" x="708.5" y="979.5">VisualisationSceneController</text></g></g><g transform="translate(10,-742) scale(1,1)"><g><path fill="none" stroke="none"/><text fill="#000000" stroke="none" font-family="Arial" font-size="13px" font-style="normal" font-weight="normal" text-decoration="none" x="605" y="1002.5">«HashMap&lt;String,DataKeeper&gt;»+keeperMap</text></g></g><g transform="translate(10,-742) scale(1,1)"><g><path fill="none" stroke="none"/><text fill="#000000" stroke="none" font-family="Arial" font-size="13px" font-style="normal" font-weight="normal" text-decoration="none" x="605" y="1017.5">«HashMap&lt;String,Visualiser&gt;»+visualiserMap</text></g></g><g transform="translate(10,-742) scale(1,1)"><g><path fill="none" stroke="none"/><text fill="#000000" stroke="none" font-family="Arial" font-size="13px" font-style="normal" font-weight="normal" text-decoration="none" x="605" y="1032.5">«String»+baseDir</text></g></g><g transform="translate(10,-742) scale(1,1)"><g><path fill="none" stroke="none"/><text fill="#000000" stroke="none" font-family="Arial" font-size="13px" font-style="normal" font-weight="normal" text-decoration="none" x="605" y="1047.5">«Boolean»+currentDirty</text></g></g><g transform="translate(10,-742) scale(1,1)"><g><path fill="none" stroke="none"/><text fill="#000000" stroke="none" font-family="Arial" font-size="13px" font-style="normal" font-weight="normal" text-decoration="none" x="605" y="1062.5">«String»+runningDir</text></g></g><g transform="translate(10,-742) scale(1,1)"><g><path fill="none" stroke="none"/><text fill="#000000" stroke="none" font-family="Arial" font-size="13px" font-style="normal" font-weight="normal" text-decoration="none" x="605" y="1077.5">«ResourceBoundle»+resources</text></g></g><g transform="translate(10,-742) scale(1,1)"><g><path fill="none" stroke="none"/><text fill="#000000" stroke="none" font-family="Arial" font-size="13px" font-style="normal" font-weight="normal" text-decoration="none" x="605" y="1092.5">«URL»+location</text></g></g><g transform="translate(10,-742) scale(1,1)"><g><path fill="none" stroke="none"/><text fill="#000000" stroke="none" font-family="Arial" font-size="13px" font-style="normal" font-weight="normal" text-decoration="none" x="605" y="1107.5">«ChooseBox»+diagramBox</text></g></g><g transform="translate(10,-742) scale(1,1)"><g><path fill="none" stroke="none"/><text fill="#000000" stroke="none" font-family="Arial" font-size="13px" font-style="normal" font-weight="normal" text-decoration="none" x="605" y="1122.5">«ChooseBox»+calculationBox</text></g></g><g transform="translate(10,-742) scale(1,1)"><g><path fill="none" stroke="none"/><text fill="#000000" stroke="none" font-family="Arial" font-size="13px" font-style="normal" font-weight="normal" text-decoration="none" x="605" y="1137.5">«Button»+showButton</text></g></g><g transform="translate(10,-742) scale(1,1)"><g><path fill="none" stroke="none"/><text fill="#000000" stroke="none" font-family="Arial" font-size="13px" font-style="normal" font-weight="normal" text-decoration="none" x="605" y="1152.5">«TabPane»+diagramPane</text></g></g><g transform="translate(10,-742) scale(1,1)"><g><path fill="none" stroke="none"/><text fill="#000000" stroke="none" font-family="Arial" font-size="13px" font-style="normal" font-weight="normal" text-decoration="none" x="605" y="1167.5">«Tab»+addDiagramTab</text></g></g><g transform="translate(10,-742) scale(1,1)"><g><path fill="none" stroke="none"/><text fill="#000000" stroke="none" font-family="Arial" font-size="13px" font-style="normal" font-weight="normal" text-decoration="none" x="605" y="1190.5">«void»+initialize()</text></g></g><g transform="translate(10,-742) scale(1,1)"><g><path fill="none" stroke="none"/><text fill="#000000" stroke="none" font-family="Arial" font-size="13px" font-style="normal" font-weight="normal" text-decoration="none" x="605" y="1205.5">«void»+onEntry()</text></g></g><g transform="translate(10,-742) scale(1,1)"><g><path fill="none" stroke="none"/><text fill="#000000" stroke="none" font-family="Arial" font-size="13px" font-style="normal" font-weight="normal" text-decoration="none" x="605" y="1220.5">«void»+onExit()</text></g></g><g transform="translate(10,-742) scale(1,1)"><g><path fill="none" stroke="none"/><text fill="#000000" stroke="none" font-family="Arial" font-size="13px" font-style="normal" font-weight="normal" text-decoration="none" x="605" y="1235.5">«void»+show()</text></g></g><g transform="translate(10,-742) scale(1,1)"><g><path fill="none" stroke="none"/><text fill="#000000" stroke="none" font-family="Arial" font-size="13px" font-style="normal" font-weight="normal" text-decoration="none" x="605" y="1250.5">«void»+refresh()</text></g></g><g transform="translate(10,-742) scale(1,1)"><path fill="none" stroke="#000000" d="M 643 1399 L 711 1269" stroke-miterlimit="10"/></g><g transform="translate(10,-742) scale(1,1)"><path fill="#FFFFFF" stroke="none" d="M 710.0196714992277 1279.956229097211 L 711 1269 L 702.5595791784422 1276.0540269601847 L 700.8030544126001 1288.494160681794"/></g><g transform="translate(10,-742) scale(1,1)"><path fill="none" stroke="#000000" d="M 710.0196714992277 1279.956229097211 L 711 1269 L 702.5595791784422 1276.0540269601847 L 700.8030544126001 1288.494160681794 L 710.0196714992277 1279.956229097211" stroke-miterlimit="10"/></g><g transform="translate(10,-742) scale(1,1)"><g><path fill="none" stroke="none"/><text fill="#000000" stroke="none" font-family="Arial" font-size="13px" font-style="normal" font-weight="normal" text-decoration="none" x="634" y="1376">+n</text></g></g><g transform="translate(10,-742) scale(1,1)"><g><path fill="none" stroke="none"/><text fill="#000000" stroke="none" font-family="Arial" font-size="13px" font-style="normal" font-weight="normal" text-decoration="none" x="678" y="1292">+1</text></g></g><g transform="translate(10,-742) scale(1,1)"><rect fill="#C0C0C0" stroke="none" x="911" y="1615" width="344" height="152" opacity="0.2"/></g><g transform="translate(10,-742) scale(1,1)"><rect fill="#ffffff" stroke="none" x="904" y="1608" width="344" height="152"/></g><g transform="translate(10,-742) scale(1,1)"><path fill="none" stroke="#000000" d="M 904 1608 L 1248 1608 L 1248 1760 L 904 1760 L 904 1608 Z Z" stroke-miterlimit="10"/></g><g transform="translate(10,-742) scale(1,1)"><path fill="none" stroke="#000000" d="M 904 1633 L 1248 1633" stroke-miterlimit="10"/></g><g transform="translate(10,-742) scale(1,1)"><path fill="none" stroke="#000000" d="M 904 1643 L 1248 1643" stroke-miterlimit="10"/></g><g transform="translate(10,-742) scale(1,1)"><g><path fill="none" stroke="none"/><text fill="#000000" stroke="none" font-family="Arial" font-size="13px" font-style="normal" font-weight="bold" text-decoration="none" x="1023.5" y="1627.5">StatisticVisualiser</text></g></g><g transform="translate(10,-742) scale(1,1)"><g><path fill="none" stroke="none"/><text fill="#000000" stroke="none" font-family="Arial" font-size="13px" font-style="normal" font-weight="normal" text-decoration="none" x="909" y="1660.5">«void»+getVisualisation(node: Pane, taskMap, eventList)</text></g></g><g transform="translate(10,-742) scale(1,1)"><path fill="none" stroke="#000000" d="M 923 1607 L 721 1505" stroke-miterlimit="10"/></g><g transform="translate(10,-742) scale(1,1)"><path fill="#FFFFFF" stroke="none" d="M 742.9383169629284 1506.646283339553 L 721 1505 L 735.3486345791541 1521.6768308054588"/></g><g transform="translate(10,-742) scale(1,1)"><path fill="none" stroke="#000000" d="M 742.9383169629284 1506.646283339553 L 721 1505 L 735.3486345791541 1521.6768308054588 L 742.9383169629284 1506.646283339553" stroke-miterlimit="10"/></g><g transform="translate(10,-742) scale(1,1)"><rect fill="#C0C0C0" stroke="none" x="79" y="1087" width="247" height="167" opacity="0.2"/></g><g transform="translate(10,-742) scale(1,1)"><rect fill="#ffffff" stroke="none" x="72" y="1080" width="247" height="167"/></g><g transform="translate(10,-742) scale(1,1)"><path fill="none" stroke="#000000" d="M 72 1080 L 319 1080 L 319 1247 L 72 1247 L 72 1080 Z Z" stroke-miterlimit="10"/></g><g transform="translate(10,-742) scale(1,1)"><path fill="none" stroke="#000000" d="M 72 1105 L 319 1105" stroke-miterlimit="10"/></g><g transform="translate(10,-742) scale(1,1)"><path fill="none" stroke="#000000" d="M 72 1143 L 319 1143" stroke-miterlimit="10"/></g><g transform="translate(10,-742) scale(1,1)"><g><path fill="none" stroke="none"/><text fill="#000000" stroke="none" font-family="Arial" font-size="13px" font-style="normal" font-weight="bold" text-decoration="none" x="162.5" y="1099.5">Datakeeper</text></g></g><g transform="translate(10,-742) scale(1,1)"><g><path fill="none" stroke="none"/><text fill="#000000" stroke="none" font-family="Arial" font-size="13px" font-style="normal" font-weight="normal" text-decoration="none" x="77" y="1122.5">«List&lt;Event&gt;»+EventList</text></g></g><g transform="translate(10,-742) scale(1,1)"><g><path fill="none" stroke="none"/><text fill="#000000" stroke="none" font-family="Arial" font-size="13px" font-style="normal" font-weight="normal" text-decoration="none" x="77" y="1137.5">«HashMap&lt;String,Task&gt;»+Taskmap</text></g></g><g transform="translate(10,-742) scale(1,1)"><g><path fill="none" stroke="none"/><text fill="#000000" stroke="none" font-family="Arial" font-size="13px" font-style="normal" font-weight="normal" text-decoration="none" x="77" y="1160.5">«HashMap&lt;String,Task&gt;»+getTaskMap()</text></g></g><g transform="translate(10,-742) scale(1,1)"><g><path fill="none" stroke="none"/><text fill="#000000" stroke="none" font-family="Arial" font-size="13px" font-style="normal" font-weight="normal" text-decoration="none" x="77" y="1175.5">«List&lt;Event&gt;»+getEventList()</text></g></g><g transform="translate(10,-742) scale(1,1)"><path fill="none" stroke="#000000" d="M 320 1153 L 599 1130" stroke-miterlimit="10"/></g><g transform="translate(10,-742) scale(1,1)"><path fill="#FFFFFF" stroke="none" d="M 589.2175304003459 1135.0302374230093 L 599 1130 L 588.5258344165451 1126.6396644021215 L 577.0743760736343 1131.8074887107757"/></g><g transform="translate(10,-742) scale(1,1)"><path fill="none" stroke="#000000" d="M 589.2175304003459 1135.0302374230093 L 599 1130 L 588.5258344165451 1126.6396644021215 L 577.0743760736343 1131.8074887107757 L 589.2175304003459 1135.0302374230093" stroke-miterlimit="10"/></g><g transform="translate(10,-742) scale(1,1)"><rect fill="#C0C0C0" stroke="none" x="287" y="759" width="216" height="310" opacity="0.2"/></g><g transform="translate(10,-742) scale(1,1)"><rect fill="#ffffff" stroke="none" x="280" y="752" width="216" height="310"/></g><g transform="translate(10,-742) scale(1,1)"><path fill="none" stroke="#000000" d="M 280 752 L 496 752 L 496 1062 L 280 1062 L 280 752 Z Z" stroke-miterlimit="10"/></g><g transform="translate(10,-742) scale(1,1)"><path fill="none" stroke="#000000" d="M 280 777 L 496 777" stroke-miterlimit="10"/></g><g transform="translate(10,-742) scale(1,1)"><path fill="none" stroke="#000000" d="M 280 875 L 496 875" stroke-miterlimit="10"/></g><g transform="translate(10,-742) scale(1,1)"><g><path fill="none" stroke="none"/><text fill="#000000" stroke="none" font-family="Arial" font-size="13px" font-style="normal" font-weight="bold" text-decoration="none" x="374" y="771.5">Task</text></g></g><g transform="translate(10,-742) scale(1,1)"><g><path fill="none" stroke="none"/><text fill="#000000" stroke="none" font-family="Arial" font-size="13px" font-style="normal" font-weight="normal" text-decoration="none" x="285" y="794.5">«int»-id</text></g></g><g transform="translate(10,-742) scale(1,1)"><g><path fill="none" stroke="none"/><text fill="#000000" stroke="none" font-family="Arial" font-size="13px" font-style="normal" font-weight="normal" text-decoration="none" x="285" y="809.5">«int»-rank</text></g></g><g transform="translate(10,-742) scale(1,1)"><g><path fill="none" stroke="none"/><text fill="#000000" stroke="none" font-family="Arial" font-size="13px" font-style="normal" font-weight="normal" text-decoration="none" x="285" y="824.5">«int»-parent</text></g></g><g transform="translate(10,-742) scale(1,1)"><g><path fill="none" stroke="none"/><text fill="#000000" stroke="none" font-family="Arial" font-size="13px" font-style="normal" font-weight="normal" text-decoration="none" x="285" y="839.5">«long»-appeared</text></g></g><g transform="translate(10,-742) scale(1,1)"><g><path fill="none" stroke="none"/><text fill="#000000" stroke="none" font-family="Arial" font-size="13px" font-style="normal" font-weight="normal" text-decoration="none" x="285" y="854.5">«long»-started</text></g></g><g transform="translate(10,-742) scale(1,1)"><g><path fill="none" stroke="none"/><text fill="#000000" stroke="none" font-family="Arial" font-size="13px" font-style="normal" font-weight="normal" text-decoration="none" x="285" y="869.5">«long»-ended</text></g></g><g transform="translate(10,-742) scale(1,1)"><g><path fill="none" stroke="none"/><text fill="#000000" stroke="none" font-family="Arial" font-size="13px" font-style="normal" font-weight="normal" text-decoration="none" x="285" y="892.5">«int»+getId()</text></g></g><g transform="translate(10,-742) scale(1,1)"><g><path fill="none" stroke="none"/><text fill="#000000" stroke="none" font-family="Arial" font-size="13px" font-style="normal" font-weight="normal" text-decoration="none" x="285" y="907.5">«void»+setId(id)</text></g></g><g transform="translate(10,-742) scale(1,1)"><g><path fill="none" stroke="none"/><text fill="#000000" stroke="none" font-family="Arial" font-size="13px" font-style="normal" font-weight="normal" text-decoration="none" x="285" y="922.5">«int»+getRank()</text></g></g><g transform="translate(10,-742) scale(1,1)"><g><path fill="none" stroke="none"/><text fill="#000000" stroke="none" font-family="Arial" font-size="13px" font-style="normal" font-weight="normal" text-decoration="none" x="285" y="937.5">«void»+setRank(rank)</text></g></g><g transform="translate(10,-742) scale(1,1)"><g><path fill="none" stroke="none"/><text fill="#000000" stroke="none" font-family="Arial" font-size="13px" font-style="normal" font-weight="normal" text-decoration="none" x="285" y="952.5">«int»+getParent()</text></g></g><g transform="translate(10,-742) scale(1,1)"><g><path fill="none" stroke="none"/><text fill="#000000" stroke="none" font-family="Arial" font-size="13px" font-style="normal" font-weight="normal" text-decoration="none" x="285" y="967.5">«void»+setParent(parent)</text></g></g><g transform="translate(10,-742) scale(1,1)"><g><path fill="none" stroke="none"/><text fill="#000000" stroke="none" font-family="Arial" font-size="13px" font-style="normal" font-weight="normal" text-decoration="none" x="285" y="982.5">«long»+getAppeared()</text></g></g><g transform="translate(10,-742) scale(1,1)"><g><path fill="none" stroke="none"/><text fill="#000000" stroke="none" font-family="Arial" font-size="13px" font-style="normal" font-weight="normal" text-decoration="none" x="285" y="997.5">«void»+setAppeared(long time)</text></g></g><g transform="translate(10,-742) scale(1,1)"><g><path fill="none" stroke="none"/><text fill="#000000" stroke="none" font-family="Arial" font-size="13px" font-style="normal" font-weight="normal" text-decoration="none" x="285" y="1012.5">«long»+getStarted()</text></g></g><g transform="translate(10,-742) scale(1,1)"><g><path fill="none" stroke="none"/><text fill="#000000" stroke="none" font-family="Arial" font-size="13px" font-style="normal" font-weight="normal" text-decoration="none" x="285" y="1027.5">«void»+setStarted(long time)</text></g></g><g transform="translate(10,-742) scale(1,1)"><g><path fill="none" stroke="none"/><text fill="#000000" stroke="none" font-family="Arial" font-size="13px" font-style="normal" font-weight="normal" text-decoration="none" x="285" y="1042.5">«long»+getEnded()</text></g></g><g transform="translate(10,-742) scale(1,1)"><g><path fill="none" stroke="none"/><text fill="#000000" stroke="none" font-family="Arial" font-size="13px" font-style="normal" font-weight="normal" text-decoration="none" x="285" y="1057.5">«void»+setEnded(long time)</text></g></g><g transform="translate(10,-742) scale(1,1)"><rect fill="#C0C0C0" stroke="none" x="7" y="879" width="204" height="130" opacity="0.2"/></g><g transform="translate(10,-742) scale(1,1)"><rect fill="#ffffff" stroke="none" x="0" y="872" width="204" height="130"/></g><g transform="translate(10,-742) scale(1,1)"><path fill="none" stroke="#000000" d="M 0 872 L 204 872 L 204 1002 L 0 1002 L 0 872 Z Z" stroke-miterlimit="10"/></g><g transform="translate(10,-742) scale(1,1)"><path fill="none" stroke="#000000" d="M 0 897 L 204 897" stroke-miterlimit="10"/></g><g transform="translate(10,-742) scale(1,1)"><path fill="none" stroke="#000000" d="M 0 935 L 204 935" stroke-miterlimit="10"/></g><g transform="translate(10,-742) scale(1,1)"><g><path fill="none" stroke="none"/><text fill="#000000" stroke="none" font-family="Arial" font-size="13px" font-style="normal" font-weight="bold" text-decoration="none" x="86" y="891.5">Event</text></g></g><g transform="translate(10,-742) scale(1,1)"><g><path fill="none" stroke="none"/><text fill="#000000" stroke="none" font-family="Arial" font-size="13px" font-style="normal" font-weight="normal" text-decoration="none" x="5" y="914.5">«long»-time</text></g></g><g transform="translate(10,-742) scale(1,1)"><g><path fill="none" stroke="none"/><text fill="#000000" stroke="none" font-family="Arial" font-size="13px" font-style="normal" font-weight="normal" text-decoration="none" x="5" y="929.5">«Double[]»-parameters</text></g></g><g transform="translate(10,-742) scale(1,1)"><g><path fill="none" stroke="none"/><text fill="#000000" stroke="none" font-family="Arial" font-size="13px" font-style="normal" font-weight="normal" text-decoration="none" x="5" y="952.5">«void»+setTime(time)</text></g></g><g transform="translate(10,-742) scale(1,1)"><g><path fill="none" stroke="none"/><text fill="#000000" stroke="none" font-family="Arial" font-size="13px" font-style="normal" font-weight="normal" text-decoration="none" x="5" y="967.5">«long»+getTime()</text></g></g><g transform="translate(10,-742) scale(1,1)"><g><path fill="none" stroke="none"/><text fill="#000000" stroke="none" font-family="Arial" font-size="13px" font-style="normal" font-weight="normal" text-decoration="none" x="5" y="982.5">«void»+setParameters(prameters)</text></g></g><g transform="translate(10,-742) scale(1,1)"><g><path fill="none" stroke="none"/><text fill="#000000" stroke="none" font-family="Arial" font-size="13px" font-style="normal" font-weight="normal" text-decoration="none" x="5" y="997.5">«double[]»+getParameters()</text></g></g><g transform="translate(10,-742) scale(1,1)"><path fill="none" stroke="#000000" d="M 129 1003 L 160 1079" stroke-miterlimit="10"/></g><g transform="translate(10,-742) scale(1,1)"><path fill="#FFFFFF" stroke="none" d="M 152.26398359340476 1071.1798944919592 L 160 1079 L 160.059459973856 1068.0001607051963 L 151.69095519209867 1058.6294385354677"/></g><g transform="translate(10,-742) scale(1,1)"><path fill="none" stroke="#000000" d="M 152.26398359340476 1071.1798944919592 L 160 1079 L 160.059459973856 1068.0001607051963 L 151.69095519209867 1058.6294385354677 L 152.26398359340476 1071.1798944919592" stroke-miterlimit="10"/></g><g transform="translate(10,-742) scale(1,1)"><path fill="none" stroke="#000000" d="M 279 1052 L 258 1079" stroke-miterlimit="10"/></g><g transform="translate(10,-742) scale(1,1)"><path fill="#FFFFFF" stroke="none" d="M 260.9164866622462 1068.3936761529294 L 258 1079 L 267.56207101183867 1073.5624639803902 L 271.50669349732823 1061.634251217721"/></g><g transform="translate(10,-742) scale(1,1)"><path fill="none" stroke="#000000" d="M 260.9164866622462 1068.3936761529294 L 258 1079 L 267.56207101183867 1073.5624639803902 L 271.50669349732823 1061.634251217721 L 260.9164866622462 1068.3936761529294" stroke-miterlimit="10"/></g><g transform="translate(10,-742) scale(1,1)"><path fill="none" stroke="#000000" d="M 253 1399 L 216 1248" stroke-miterlimit="10"/></g><g transform="translate(10,-742) scale(1,1)"><path fill="#FFFFFF" stroke="none" d="M 222.50720668449188 1256.8688365170017 L 216 1248 L 214.3300755307798 1258.8725044155935 L 221.23583654042318 1269.3678734487542"/></g><g transform="translate(10,-742) scale(1,1)"><path fill="none" stroke="#000000" d="M 222.50720668449188 1256.8688365170017 L 216 1248 L 214.3300755307798 1258.8725044155935 L 221.23583654042318 1269.3678734487542 L 222.50720668449188 1256.8688365170017" stroke-miterlimit="10"/></g></g></svg>